<?xml version="1.0" encoding="UTF-8" standalone="no"?>
<svg
   xmlns:osb="http://www.openswatchbook.org/uri/2009/osb"
   xmlns:dc="http://purl.org/dc/elements/1.1/"
   xmlns:cc="http://creativecommons.org/ns#"
   xmlns:rdf="http://www.w3.org/1999/02/22-rdf-syntax-ns#"
   xmlns:svg="http://www.w3.org/2000/svg"
   xmlns="http://www.w3.org/2000/svg"
   xmlns:xlink="http://www.w3.org/1999/xlink"
   xmlns:sodipodi="http://sodipodi.sourceforge.net/DTD/sodipodi-0.dtd"
   xmlns:inkscape="http://www.inkscape.org/namespaces/inkscape"
   version="1.1"
   id="svg5493"
   viewBox="0 0 132.46221 250.49284"
   height="250.49284"
   width="132.46222"
   inkscape:version="0.91 r13725"
   sodipodi:docname="mve_head_outline.svg">
  <sodipodi:namedview
     pagecolor="#ffffff"
     bordercolor="#666666"
     borderopacity="1"
     objecttolerance="10"
     gridtolerance="10"
     guidetolerance="10"
     inkscape:pageopacity="0"
     inkscape:pageshadow="2"
     inkscape:window-width="1920"
     inkscape:window-height="1057"
     id="namedview39"
     showgrid="false"
     inkscape:zoom="1.0819965"
     inkscape:cx="-71.69589"
     inkscape:cy="80.021897"
     inkscape:window-x="1912"
     inkscape:window-y="-8"
     inkscape:window-maximized="1"
     inkscape:current-layer="svg5493"
     inkscape:object-paths="true"
     fit-margin-top="0"
     fit-margin-left="0"
     fit-margin-right="0"
     fit-margin-bottom="0"
     units="px"
     inkscape:snap-page="true"
     inkscape:snap-smooth-nodes="true"
     inkscape:object-nodes="true"
     inkscape:snap-bbox="true" />
  <defs
     id="defs5495">
    <linearGradient
       id="linearGradient4811"
       osb:paint="solid">
      <stop
         style="stop-color:#587886;stop-opacity:1;"
         offset="0"
         id="stop4813" />
    </linearGradient>
    <linearGradient
       id="linearGradient4805"
       osb:paint="solid">
      <stop
         style="stop-color:#fa9a8b;stop-opacity:1;"
         offset="0"
         id="stop4807" />
    </linearGradient>
  </defs>
  <metadata
     id="metadata5498">
    <rdf:RDF>
      <cc:Work
         rdf:about="">
        <dc:format>image/svg+xml</dc:format>
        <dc:type
           rdf:resource="http://purl.org/dc/dcmitype/StillImage" />
        <dc:title></dc:title>
      </cc:Work>
    </rdf:RDF>
  </metadata>
  <g
     inkscape:groupmode="layer"
     id="layer1"
     inkscape:label="background"
     transform="translate(-399.26545,-255.44391)" />
  <image
     sodipodi:absref="C:\Users\edwar\Documents\Web Design\portfolio2\img\mve01.png"
     xlink:href="mve01.png"
     y="-19.296473"
     x="-372.85245"
     id="image4182"
     preserveAspectRatio="none"
     height="274.83972"
     width="274.83972" />
  <g
     id="g6388"
     transform="matrix(2.4554774,0,0,2.4554774,-1646.3226,-5282.8056)">
    <path
       sodipodi:nodetypes="cccccccc"
       inkscape:connector-curvature="0"
       id="path4838-5"
       d="m 684.04393,2228.7693 0.59897,5.7757 c 3.2479,5.9062 9.29207,9.9482 15.34842,13.982 4.00267,2.6035 5.35486,5.2998 6.64999,4.7084 5.70688,-2.8116 5.99198,-11.6844 8.98797,-17.5265 l 0.0335,-7.0451 c -4.12032,8.7691 -4.72834,11.4003 -15.01724,12.3252 -7.20933,0.1803 -7.71771,-1.3302 -16.60158,-12.2197 z"
       style="fill:#ffffff;fill-opacity:1;fill-rule:evenodd;stroke:#fa9a8b;stroke-width:0.27102652;stroke-linecap:butt;stroke-linejoin:miter;stroke-miterlimit:4;stroke-dasharray:none;stroke-opacity:1" />
    <path
       inkscape:connector-curvature="0"
       id="path4832-3"
       d="m 675.83507,2198.8485 c 0.47251,1.4049 1.02235,2.4232 1.41561,4.2243 0.14347,2.741 1.04157,5.2304 1.6403,7.8196 0.71808,5.8524 1.87001,11.9575 3.79742,15.1672 2.64232,4.5391 6.14131,7.0818 9.26757,11.3775 1.74668,2.2893 4.84098,2.9362 9.96668,2.7785 5.86079,-0.168 6.58819,-1.6086 9.21267,-3.9772 1.17343,-1.106 1.92492,-2.9285 3.41542,-5.977 0.92953,-2.1154 1.76818,-3.4161 2.80875,-4.9209 1.42791,-2.2664 2.76005,-7.2465 2.98848,-8.9992 0.38782,-2.5151 0.41945,-5.4452 0.49435,-8.4374 0.10389,-1.5876 0.38245,-2.8022 0.53928,-4.1345 0.28226,-2.5986 0.7201,-4.5886 0.85386,-7.2803 0.18067,-3.1061 -0.0886,-5.4249 -0.13483,-8.1341 l -0.2247,-3.5951 1.07857,1.3931 -1.21338,-4.0895 c -0.042,-0.7496 -0.11256,-1.4648 0.13481,-2.5616 0.136,-0.1589 0.35564,-0.2968 0.96621,-0.3371 -0.7517,-1.4503 -1.89396,-2.2629 -2.94356,-3.4154 0.67015,-1.4762 1.88255,-2.3424 3.01097,-3.3031 -0.75776,0.1564 -1.66168,0.5136 -2.65145,0.9887 0.83168,-1.3632 1.14554,-2.7263 1.70772,-4.0895 -0.61883,1.1507 -1.40715,2.0189 -2.20206,2.8761 0.91901,-1.561 1.29122,-3.1903 1.75266,-4.8085 -0.78636,1.3707 -1.25155,3.0627 -2.69639,3.7749 -0.16549,-1.9987 -1.09932,-3.6558 -1.75266,-5.4377 -0.0377,0.5202 -0.21717,0.8277 -0.49433,0.9887 -0.17542,-2.0472 -0.97752,-3.2886 -1.52796,-4.8535 -0.11178,0.974 0.43328,2.3063 -0.33705,2.9211 -0.43319,-1.5234 -1.05909,-3.1816 -2.0897,-5.1232 0.2123,0.4804 0.26704,0.8978 0.17976,1.2583 -0.70435,-1.3773 -1.64629,-2.1211 -2.51663,-3.0559 0.0274,0.2561 0.26356,0.5718 -0.0899,0.7191 -0.80925,-0.8384 -1.80416,-1.6403 -2.89862,-2.0223 l -0.47187,0.4943 c -1.1246,-0.9973 -2.24169,-2.0086 -3.77494,-2.247 -1.08428,-1.8554 -2.44587,-3.0684 -3.41544,-3.2356 -0.1067,0.6981 -0.32965,1.4295 -0.85385,2.2469 -0.57247,-0.3113 -1.06366,-0.7039 -1.97736,-0.674 0.2131,0.5392 0.44993,1.0785 0.31458,1.6178 -0.47754,-0.3865 -1.12638,-0.3448 -1.84252,-0.1348 l 0.26963,0.4494 c -0.9543,-0.074 -1.87173,0.1101 -2.74133,0.6291 0.59876,0.4737 0.55972,0.8677 0.49434,1.2583 -0.76397,-0.418 -1.52796,-0.4463 -2.29193,-0.3595 -0.0229,0.3146 0.0376,0.6539 -0.67411,0.764 -0.42621,0.031 -1.07824,0.4563 -1.84252,1.0785 -0.0338,1.4122 -1.70558,1.3502 -2.56158,2.0223 -0.49833,-0.2261 -0.61846,-0.6034 -0.26963,-1.1684 -1.33305,0.3002 -2.36886,1.5911 -3.46037,2.6964 -0.26923,-0.091 -0.634,0.01 -0.58423,-0.719 -0.76321,0.3281 -1.26214,0.8215 -1.34819,1.5729 -0.85762,-0.1081 -1.53117,-0.3739 -1.79759,-0.9887 -1.87903,1.7057 -1.04063,3.2683 -1.48302,4.8984 -0.69241,-0.3009 -1.16935,-0.9035 -1.43808,-1.7976 -1.5383,2.1731 0.0223,4.3442 0.0899,6.5163 -0.69984,-0.4514 -1.00931,-1.5535 -1.48302,-2.3818 -0.31376,1.8646 0.11087,3.36 0.80892,4.7187 -0.92724,0.7641 -1.6136,-0.7342 -2.70091,-1.5707 0.78288,1.4315 -1.47648,3.2616 0.9932,3.8626 -0.50356,0.2065 -0.98464,0.6043 -1.57289,0.09 -0.036,1.1943 1.00797,1.4436 1.57289,2.1122 -0.69995,0.1258 -1.47364,0.055 -2.42676,-0.4944 0.60096,0.9579 1.20364,1.9002 1.88747,2.1122 -0.46911,0.6465 -1.07428,0.9302 -1.79759,0.8988 0.78004,0.5654 1.65708,0.7914 2.60651,0.764 -0.5441,1.9179 -1.62132,2.2365 -2.56156,2.966 0.40845,0 0.89489,-0.028 0.89879,0.1348 0.25887,0.5419 0.65764,1.0837 0.10531,1.6256 0.49569,-0.1549 1.04122,-0.559 1.3777,0.082 0.43413,1.2603 0.0651,2.0616 -0.0449,3.011 l 0.58422,-0.8539 c 0.46316,0.6972 1.01201,1.3515 0.98867,2.292 0.0458,1.4446 0.13916,2.4134 0.26965,3.0109 0.2056,1.5015 0.46575,1.8838 0.82978,2.6724 0.1082,1.2986 -0.0864,1.5373 -0.13322,2.2935 z"
       style="fill:#fa9a8b;fill-opacity:1;fill-rule:evenodd;stroke:#fa9a8b;stroke-width:0.27102652;stroke-linecap:butt;stroke-linejoin:miter;stroke-miterlimit:4;stroke-dasharray:none;stroke-opacity:1" />
    <path
       inkscape:connector-curvature="0"
       id="path4807-5"
       d="m 690.32816,2226.0146 c -0.48452,3.961 1.44547,5.3256 2.38182,5.8197 0.92821,0.4944 3.72722,4.2252 7.72965,3.2582 0.83532,-0.3348 0.99008,-1.1505 0.62916,-2.2021 -0.7546,-1.7104 -4.83533,-2.0767 -4.79267,-5.2775 1.11181,1.0609 9.70646,0.8299 9.99525,0.2597 0.70195,1.2945 -2.68947,4.2134 -3.16261,4.7318 -0.46207,0.5342 -0.41604,2.5068 0.43172,2.4881 1.81758,0.03 3.13956,-0.66 4.4041,-1.483 1.14848,-0.8012 2.134,-1.3763 2.92109,-3.5952 0.49911,-1.4077 0.61858,-2.5891 0.85386,-5.0333 0.26489,-2.8737 -0.20735,-6.2291 -1.25832,-6.4713 -3.5597,-0.6049 -5.52246,-0.2315 -6.28908,-0.2406 -0.87968,-0.034 -2.11804,-0.5791 -2.27194,-1.2144 -0.12865,-0.5404 -0.15303,-1.2893 -0.21348,-1.9661 -0.26921,0.093 -0.52645,0.066 -0.78083,0.011 0.1442,0.7875 0.0929,1.5272 0.11796,2.0167 -0.13387,0.5479 -0.19619,1.1092 -1.25831,1.483 -2.65145,0.431 -7.28025,0.5799 -7.95434,1.5729 -0.99089,1.9103 -1.19091,3.8499 -1.48303,5.8422 z"
       style="fill:#ffffff;fill-opacity:1;fill-rule:evenodd;stroke:#fa9a8b;stroke-width:0.27102652;stroke-linecap:butt;stroke-linejoin:miter;stroke-miterlimit:4;stroke-dasharray:none;stroke-opacity:1" />
    <path
       inkscape:connector-curvature="0"
       id="path4799-1"
       d="m 684.98032,2176.2213 c 1.29164,-0.1542 4.12013,-1.6829 4.58387,-1.6178 4.57851,0.9091 14.24602,0.1764 21.12173,-0.1349 1.79524,-0.061 5.52011,4.9209 5.34784,8.0892 -0.11935,3.1649 1.06358,5.4827 1.52795,8.224 0.66993,3.2142 1.80134,5.2168 1.97736,6.9657 0.36683,2.9908 0.64153,8.1132 0.53927,8.4936 -0.26742,1.0247 -0.53066,1.7468 -0.62916,2.3818 -0.0718,0.5968 0.14065,7.1878 -0.13481,7.5499 -0.80846,0.9173 -3.09454,1.5902 -3.23567,1.9324 -0.84699,2.1794 -2.56773,4.995 -3.10086,4.7636 -0.74908,-0.3967 -1.27169,0.6787 0.002,-5.5754 0.18181,-0.7844 -4.63589,-3.3633 -6.86843,-5.0251 -0.25819,0.012 -1.009,0.089 -1.22234,0.1745 -0.98125,1.0995 -1.64858,2.355 -3.41542,2.6964 -1.09553,0.117 -2.52812,-1.2264 -4.1305,-2.0171 -0.72521,-0.2278 -1.44448,-0.5831 -1.84797,0.017 -2.468,1.6259 -4.33133,3.2201 -5.66095,4.7862 -1.04297,1.5785 0.7856,8.298 -0.15729,8.2015 -1.54053,0.066 -2.66643,-2.6215 -3.97718,-3.9323 -1.18983,-1.1064 -2.87847,-1.1873 -3.4379,-2.4042 -1.52543,-3.8369 -2.03501,-9.8606 -2.71885,-12.336 -0.41974,-1.4482 -0.44441,-6.6099 -0.40446,-7.46 0.0213,-0.9157 0.81203,-4.1408 0.85385,-4.876 0.015,-3.6999 0.70764,-5.3687 0.2247,-11.1226 -0.10079,-1.7755 2.73135,-7.489 4.76362,-7.7746 z"
       style="fill:#ffffff;fill-opacity:1;fill-rule:evenodd;stroke:#fa9a8b;stroke-width:0.27102652;stroke-linecap:butt;stroke-linejoin:miter;stroke-miterlimit:4;stroke-dasharray:none;stroke-opacity:1" />
    <path
       inkscape:connector-curvature="0"
       id="path4766-1"
       d="m 684.44104,2200.8708 c 1.45545,-3.1536 6.56944,-4.467 10.58334,-1.9549"
       style="fill:#ffffff;fill-opacity:1;fill-rule:evenodd;stroke:#fa9a8b;stroke-width:0.27102652;stroke-linecap:butt;stroke-linejoin:miter;stroke-miterlimit:4;stroke-dasharray:none;stroke-opacity:1" />
    <path
       inkscape:connector-curvature="0"
       id="path4834-1"
       d="m 675.86994,2198.9747 c -0.67232,0.17 -1.36608,0.8353 -1.61273,1.743 -0.92343,2.5697 2.39285,8.0646 3.52727,11.6305 0.22492,0.5188 0.10624,2.1174 0.48927,2.7186 0.22212,0.3317 0.81217,1.4895 1.46099,1.3777 -0.48525,-2.9044 -0.76644,-6.2405 -1.77125,-9.2825 -0.81209,-4.0195 -0.68415,-5.7707 -2.09355,-8.1873 z"
       style="fill:#ffffff;fill-opacity:1;fill-rule:evenodd;stroke:#fa9a8b;stroke-width:0.27102652;stroke-linecap:butt;stroke-linejoin:miter;stroke-miterlimit:4;stroke-dasharray:none;stroke-opacity:1" />
    <path
       inkscape:connector-curvature="0"
       id="path4768-8"
       d="m 694.19299,2199.7698 c 0.50538,0.2412 0.88514,0.4024 0.80892,0.8763 -0.47187,0.4956 -0.78645,0.1768 -1.25831,0.1348 -3.99426,1.3629 -5.69793,0.5498 -7.38138,-0.3258 1.02732,-1.6803 4.65159,-3.3734 7.83077,-0.6853 z"
       style="fill:#ffffff;fill-opacity:1;fill-rule:evenodd;stroke:#fa9a8b;stroke-width:0.27102652;stroke-linecap:butt;stroke-linejoin:miter;stroke-miterlimit:4;stroke-dasharray:none;stroke-opacity:1" />
    <path
       inkscape:connector-curvature="0"
       id="path4836-2"
       d="m 722.29163,2194.9275 c 0.7564,0.2969 1.39284,0.6773 1.60661,1.337 0.38567,0.6873 0.47037,3.9189 0.2921,4.3591 -0.86645,2.3931 -0.71861,3.9361 -1.61784,6.8084 -0.17465,1.7882 -0.22878,1.4066 -0.33704,1.9998 -0.003,0.8153 0.56552,0.9504 -0.0674,2.5167 -0.31045,0.7543 -0.89919,1.1744 -1.5139,1.4605 -0.15567,-5.2004 1.34711,-12.0281 1.63748,-18.4815 z"
       style="fill:#ffffff;fill-opacity:1;fill-rule:evenodd;stroke:#fa9a8b;stroke-width:0.27102652;stroke-linecap:butt;stroke-linejoin:miter;stroke-miterlimit:4;stroke-dasharray:none;stroke-opacity:1" />
    <path
       inkscape:connector-curvature="0"
       id="path4770-0"
       d="m 688.04747,2199.0507 c -0.20203,1.6203 0.61252,1.891 1.23585,2.4155 0.39477,0.062 0.9972,0.052 1.67121,-0.022 0.96769,-0.821 1.59888,-1.6735 0.84542,-2.9099 -1.09058,-0.223 -2.21983,-0.3506 -3.75248,0.5168 z"
       style="fill:#587886;fill-opacity:1;fill-rule:evenodd;stroke:#fa9a8b;stroke-width:0.27102652;stroke-linecap:butt;stroke-linejoin:miter;stroke-miterlimit:4;stroke-dasharray:none;stroke-opacity:1" />
    <path
       inkscape:connector-curvature="0"
       id="path4772-8"
       d="m 694.39523,2209.1847 c -0.96552,2.1459 -0.47107,3.3881 1.07855,3.9771 0.24789,-0.3167 0.38804,-0.234 0.5168,-0.3595 2.09905,0.016 3.60724,2.3974 5.50312,2.3291 1.76547,-0.2421 2.85638,-2.1677 3.26016,-2.5538 0.0561,-0.259 1.02037,-0.2645 1.34819,-0.3146 2.28075,-1.1401 0.98143,-2.8374 0.83139,-3.8311 -0.85734,-1.1511 -1.52351,-0.8099 -1.78636,-0.3258"
       style="fill:#ffffff;fill-opacity:1;fill-rule:evenodd;stroke:#fa9a8b;stroke-width:0.27102652;stroke-linecap:butt;stroke-linejoin:miter;stroke-miterlimit:4;stroke-dasharray:none;stroke-opacity:1" />
    <path
       inkscape:connector-curvature="0"
       id="path4774-5"
       d="m 705.29313,2208.7577 c 0.006,0.5122 0.42316,0.626 0.5201,0.5465 0.0753,-0.063 0.12619,-0.1616 -0.0258,-0.4341 -0.0947,-0.144 -0.21036,-0.4256 -0.39323,-0.3146 -0.0408,0.046 -0.0903,0.066 -0.10112,0.2022 z"
       style="fill:#ffffff;fill-opacity:1;fill-rule:evenodd;stroke:#fa9a8b;stroke-width:0.27102652;stroke-linecap:butt;stroke-linejoin:miter;stroke-miterlimit:4;stroke-dasharray:none;stroke-opacity:1" />
    <path
       inkscape:connector-curvature="0"
       id="path4776-9"
       d="m 703.2259,2203.9492 c 0.48517,1.7915 0.87338,3.835 1.93242,4.1344"
       style="fill:#ffffff;fill-opacity:1;fill-rule:evenodd;stroke:#fa9a8b;stroke-width:0.27102652;stroke-linecap:butt;stroke-linejoin:miter;stroke-miterlimit:4;stroke-dasharray:none;stroke-opacity:1" />
    <path
       inkscape:connector-curvature="0"
       id="path4766-3-8"
       d="m 714.81788,2198.5415 c -1.45545,-3.106 -8.57141,-3.5614 -10.88522,-0.016"
       style="fill:#ffffff;fill-opacity:1;fill-rule:evenodd;stroke:#fa9a8b;stroke-width:0.27102652;stroke-linecap:butt;stroke-linejoin:miter;stroke-miterlimit:4;stroke-dasharray:none;stroke-opacity:1" />
    <path
       inkscape:connector-curvature="0"
       id="path4768-1-2"
       d="m 705.03416,2198.7433 c -0.50538,0.2413 -0.78981,0.4342 -0.71359,0.9081 0.47187,0.4956 0.77055,-0.014 1.24242,-0.056 5.23553,0.8378 5.61452,-0.4711 7.1649,-1.3924 -1.06506,-1.6703 -5.32486,-2.1797 -7.69373,0.5401 z"
       style="fill:#ffffff;fill-opacity:1;fill-rule:evenodd;stroke:#fa9a8b;stroke-width:0.27102652;stroke-linecap:butt;stroke-linejoin:miter;stroke-miterlimit:4;stroke-dasharray:none;stroke-opacity:1" />
    <path
       inkscape:connector-curvature="0"
       id="path4770-3-9"
       d="m 710.83808,2197.0074 c 0.20202,1.6203 -0.0961,2.1452 -0.71947,2.6697 -0.71363,0.1746 -1.95961,0.2323 -2.37031,0.1484 -0.9677,-0.821 -1.23344,-1.2683 -0.75804,-2.5047 0.24848,-0.2071 2.18806,-0.7797 3.84782,-0.3134 z"
       style="fill:#587886;fill-opacity:1;fill-rule:evenodd;stroke:#fa9a8b;stroke-width:0.27102652;stroke-linecap:butt;stroke-linejoin:miter;stroke-miterlimit:4;stroke-dasharray:none;stroke-opacity:1" />
    <path
       inkscape:connector-curvature="0"
       id="path4801-6"
       d="m 682.10815,2198.7896 c 0.51838,0.082 2.58173,-1.783 4.04062,-2.3454 2.54611,-1.1302 8.61298,0.5456 9.23513,0.2697 0.34456,-0.1875 0.44856,-1.3526 -1.76422,-2.7196 -3.38448,-0.6187 -8.21879,-0.8412 -9.45222,-0.057 -1.87611,1.6032 -2.8538,2.5378 -3.10188,4.0064 -0.0259,0.2739 0.43085,0.7306 1.04257,0.8456 z"
       style="fill:#fa9a8b;fill-opacity:1;fill-rule:evenodd;stroke:#fa9a8b;stroke-width:0.27102652;stroke-linecap:butt;stroke-linejoin:miter;stroke-miterlimit:4;stroke-dasharray:none;stroke-opacity:1" />
    <path
       inkscape:connector-curvature="0"
       id="path4803-0"
       d="m 702.75087,2196.3938 c -0.26432,-0.237 0.0507,-1.1704 0.90742,-2.4751 0.55425,-0.8089 5.90106,-3.0324 9.27462,-2.71 1.46742,0.044 2.49893,1.2506 3.77221,1.8124 0.58208,0.2989 1.1644,4.0593 0.404,3.6501 -1.6285,-0.9095 -2.22299,-1.9703 -4.71549,-2.429 -5.27712,-0.2123 -9.19528,2.5362 -9.64276,2.1516 z"
       style="fill:#fa9a8b;fill-opacity:1;fill-rule:evenodd;stroke:#fa9a8b;stroke-width:0.27102652;stroke-linecap:butt;stroke-linejoin:miter;stroke-miterlimit:4;stroke-dasharray:none;stroke-opacity:1" />
    <path
       inkscape:connector-curvature="0"
       id="path4805-9"
       d="m 697.43387,2196.6075 c 0.0793,-0.192 0.23314,-0.4237 0.65838,-0.3292 0.29773,0.066 0.67941,0.2893 0.41896,0.7182 -0.14386,0.2369 -0.52178,0.4067 -0.77807,0.2993 -0.23075,-0.097 -0.39289,-0.4615 -0.29927,-0.6883 z"
       style="fill:#ffffff;fill-opacity:1;fill-rule:evenodd;stroke:#fa9a8b;stroke-width:0.27102652;stroke-linecap:butt;stroke-linejoin:miter;stroke-miterlimit:4;stroke-dasharray:none;stroke-opacity:1" />
    <path
       inkscape:connector-curvature="0"
       id="path4809-8"
       d="m 692.12078,2221.2292 c 0.0416,1.6196 1.27799,3.3126 2.88113,4.5158 2.38095,1.592 2.54413,2.5935 6.51628,2.5166 3.70176,-0.2088 6.18116,-1.677 6.69603,-2.8761 0.50877,-1.202 1.51207,-3.6628 1.94239,-6.6144 -0.65241,1.1572 -1.26316,2.264 -2.4213,2.7468 -2.29312,1.3861 -5.2851,2.7559 -5.92567,2.8231 -0.9374,0.1467 -4.82578,-0.502 -6.31292,-1.3954 -1.23948,-0.7462 -2.28241,-1.282 -3.37594,-1.7164 z"
       style="fill:#ffffff;fill-opacity:1;fill-rule:evenodd;stroke:#fa9a8b;stroke-width:0.27102652;stroke-linecap:butt;stroke-linejoin:miter;stroke-miterlimit:4;stroke-dasharray:none;stroke-opacity:1" />
    <path
       inkscape:connector-curvature="0"
       id="path4848-1"
       d="m 701.06133,2223.7403 c 0.42015,0.1205 1.96275,0.2298 2.55808,-0.1271 0.24399,-0.1767 0.23387,-1.4945 0.17477,-2.6216 -0.0513,-0.3039 -0.18185,-0.5729 -0.60472,-0.7133 l -1.66832,0.4449 c -0.36532,0.2394 -0.56542,0.6755 -0.66635,1.1264 0.0688,0.6302 0.0526,1.8347 0.20654,1.8907 z"
       style="fill:#ffffff;fill-opacity:1;fill-rule:evenodd;stroke:#fa9a8b;stroke-width:0.27102652;stroke-linecap:butt;stroke-linejoin:miter;stroke-miterlimit:4;stroke-dasharray:none;stroke-opacity:1" />
    <path
       inkscape:connector-curvature="0"
       id="path4811-3"
       d="m 691.90604,2220.9473 c 3.81725,-0.7721 8.3618,-0.4462 9.16275,-0.2356 0.68034,0.2154 4.79147,-1.2322 8.92554,-1.968 -1.64943,-0.2303 -4.27407,-0.322 -6.20283,-0.239 -1.05462,0.1103 -1.64221,0.642 -2.00367,0.6791 -0.73401,-0.034 -1.67848,-0.4012 -2.34505,-0.182 -2.15469,0.4888 -6.21326,0.7025 -7.53674,1.9455 z"
       style="fill:#ffffff;fill-opacity:1;fill-rule:evenodd;stroke:#fa9a8b;stroke-width:0.27102652;stroke-linecap:butt;stroke-linejoin:miter;stroke-miterlimit:4;stroke-dasharray:none;stroke-opacity:1" />
    <path
       inkscape:connector-curvature="0"
       id="path4813-1"
       d="m 693.2942,2209.9262 c -1.57584,2.1551 -2.95295,4.3323 -3.46037,6.6061"
       style="fill:#ffffff;fill-opacity:1;fill-rule:evenodd;stroke:#fa9a8b;stroke-width:0.27102652;stroke-linecap:butt;stroke-linejoin:miter;stroke-miterlimit:4;stroke-dasharray:none;stroke-opacity:1" />
    <path
       inkscape:connector-curvature="0"
       id="path4815-8"
       d="m 707.85471,2208.578 c 1.87445,2.0138 3.86649,3.9688 4.58386,6.5612"
       style="fill:#ffffff;fill-opacity:1;fill-rule:evenodd;stroke:#fa9a8b;stroke-width:0.27102652;stroke-linecap:butt;stroke-linejoin:miter;stroke-miterlimit:4;stroke-dasharray:none;stroke-opacity:1" />
    <path
       inkscape:connector-curvature="0"
       id="path4840-5"
       d="m 693.94719,2220.9757 c -0.0321,0.1775 0.0993,0.8063 0.23834,1.001 0.18254,0.1698 0.37065,0.1021 0.44091,0.063 0.0347,-0.2155 -0.0545,-0.6448 -0.17478,-0.9533 -0.17478,-0.032 -0.32969,-0.089 -0.50447,-0.1112 z"
       style="fill:#ffffff;fill-opacity:1;fill-rule:evenodd;stroke:#fa9a8b;stroke-width:0.27102652;stroke-linecap:butt;stroke-linejoin:miter;stroke-miterlimit:4;stroke-dasharray:none;stroke-opacity:1" />
    <path
       inkscape:connector-curvature="0"
       id="path4842-7"
       d="m 694.49933,2221.0551 c 0.0996,0.4928 0.14438,1.141 0.30188,1.4697 0.15845,0.2684 0.47727,0.342 0.77854,0.437 0.16975,-0.033 0.34457,-0.08 0.5561,-0.2384 -0.0205,-0.4461 0.005,-0.9758 -0.0635,-1.3346 -0.27011,-0.1999 -0.60383,-0.5931 -0.81032,-0.5998 -0.23815,0 -0.56049,0.1122 -0.76265,0.2661 z"
       style="fill:#ffffff;fill-opacity:1;fill-rule:evenodd;stroke:#fa9a8b;stroke-width:0.27102652;stroke-linecap:butt;stroke-linejoin:miter;stroke-miterlimit:4;stroke-dasharray:none;stroke-opacity:1" />
    <path
       inkscape:connector-curvature="0"
       id="path4844-8"
       d="m 696.19146,2220.8962 c -0.12256,0.087 -0.0265,1.4658 -0.0715,1.859 0.20334,0.2495 0.42535,0.4763 0.85799,0.6197 0.1741,0.062 0.59109,0.01 0.92154,-0.8103 0.0184,-0.1 0.0781,-0.4212 -0.0477,-0.7627 -0.17463,-0.3604 -0.81223,-0.7997 -0.9851,-0.8739 -0.23574,-0.072 -0.46663,-0.1528 -0.67527,-0.032 z"
       style="fill:#ffffff;fill-opacity:1;fill-rule:evenodd;stroke:#fa9a8b;stroke-width:0.27102652;stroke-linecap:butt;stroke-linejoin:miter;stroke-miterlimit:4;stroke-dasharray:none;stroke-opacity:1" />
    <path
       inkscape:connector-curvature="0"
       id="path4846-5"
       d="m 697.83594,2221.4206 c 0.0624,0.7099 0.11249,1.4738 0.34955,2.3991 0.28864,0.1616 2.15552,0.429 2.67724,-0.087 0.11988,-0.2187 0.003,-1.2685 -0.008,-1.9146 0.003,-0.5985 -0.33782,-0.7457 -1.0407,-1.2711 l -1.26315,-0.072 c -0.31377,0.2181 -0.69463,0.5601 -0.71498,0.9454 z"
       style="fill:#ffffff;fill-opacity:1;fill-rule:evenodd;stroke:#fa9a8b;stroke-width:0.27102652;stroke-linecap:butt;stroke-linejoin:miter;stroke-miterlimit:4;stroke-dasharray:none;stroke-opacity:1" />
    <path
       inkscape:connector-curvature="0"
       id="path4850-5"
       d="m 703.9,2221.4869 c -0.10421,0.1137 -0.10441,0.9926 0.19099,1.3819 0.18625,0.1917 1.26599,0.072 1.64031,-0.4606 0.0955,-0.1517 0.16275,-1.2982 -0.0674,-1.7527 -0.0728,-0.1531 -0.22594,-0.3851 -0.44939,-0.337 -0.5071,0.1834 -0.89989,0.7085 -1.31449,1.1684 z"
       style="fill:#ffffff;fill-opacity:1;fill-rule:evenodd;stroke:#fa9a8b;stroke-width:0.27102652;stroke-linecap:butt;stroke-linejoin:miter;stroke-miterlimit:4;stroke-dasharray:none;stroke-opacity:1" />
    <path
       inkscape:connector-curvature="0"
       id="path4852-8"
       d="m 705.7313,2220.8016 c 0.21194,0.4756 -0.013,1.2808 0.13482,1.528 0.0812,0.1407 0.8004,-0.094 0.89879,-0.2697 0.20785,-0.4232 0.45923,-2.2868 0.30335,-2.3481 -0.24313,-0.054 -0.99417,0.5088 -1.33696,1.0898 z"
       style="fill:#ffffff;fill-opacity:1;fill-rule:evenodd;stroke:#fa9a8b;stroke-width:0.27102652;stroke-linecap:butt;stroke-linejoin:miter;stroke-miterlimit:4;stroke-dasharray:none;stroke-opacity:1" />
    <path
       inkscape:connector-curvature="0"
       id="path4854-1"
       d="m 707.15813,2219.8803 c 2e-5,0.2584 -0.1629,1.3482 -0.1629,1.3482 0.19831,-0.1068 0.44853,-0.091 0.58984,-0.8538 0.0537,-0.4331 0.12604,-0.7986 -0.0112,-0.955 -0.12115,-0.1206 -0.2743,0.2622 -0.41574,0.4606 z"
       style="fill:#ffffff;fill-opacity:1;fill-rule:evenodd;stroke:#fa9a8b;stroke-width:0.27102652;stroke-linecap:butt;stroke-linejoin:miter;stroke-miterlimit:4;stroke-dasharray:none;stroke-opacity:1" />
    <path
       inkscape:connector-curvature="0"
       id="path4805-7-2"
       d="m 687.80153,2209.2057 c 0.03,-0.073 0.0881,-0.1602 0.24885,-0.1245 0.11254,0.025 0.2568,0.1094 0.15836,0.2715 -0.0544,0.09 -0.19723,0.1537 -0.29409,0.1131 -0.0872,-0.037 -0.14851,-0.1744 -0.11312,-0.2601 z"
       style="fill:#ffffff;fill-opacity:1;fill-rule:evenodd;stroke:#fa9a8b;stroke-width:0.27102652;stroke-linecap:butt;stroke-linejoin:miter;stroke-miterlimit:4;stroke-dasharray:none;stroke-opacity:1" />
    <path
       inkscape:connector-curvature="0"
       id="path5130-3"
       d="m 716.09292,2217.6859 c 0.2309,-0.4262 0.52313,-3.5492 0.55593,-1.1491"
       style="fill:#ffffff;fill-opacity:1;fill-rule:evenodd;stroke:#fa9a8b;stroke-width:0.27102652;stroke-linecap:butt;stroke-linejoin:miter;stroke-miterlimit:4;stroke-dasharray:none;stroke-opacity:1" />
  </g>
</svg>
